<svg width="29" height="28" fill="none" xmlns="http://www.w3.org/2000/svg"><path d="M8.967.25C4.527.25.88 3.893.88 8.336v11.328c0 4.438 3.643 8.086 8.087 8.086h11.327c4.439 0 8.086-3.642 8.086-8.086V8.337c0-4.44-3.642-8.087-8.086-8.087H8.967zm0 2.5h11.327a5.579 5.579 0 015.586 5.586v11.328a5.58 5.58 0 01-5.586 5.586H8.968a5.576 5.576 0 01-5.588-5.586V8.337A5.579 5.579 0 018.967 2.75zm13.046 2.735a1.128 1.128 0 00-1.133 1.132c0 .63.503 1.133 1.133 1.133a1.127 1.127 0 001.134-1.133 1.126 1.126 0 00-1.134-1.132zM14.63 6.5c-4.125 0-7.5 3.375-7.5 7.5s3.375 7.5 7.5 7.5 7.5-3.375 7.5-7.5-3.375-7.5-7.5-7.5zm0 2.5c2.78 0 5 2.221 5 5s-2.22 5-5 5c-2.778 0-5-2.221-5-5s2.222-5 5-5z" stroke="#FBA902" stroke-width=".5"/></svg>