<svg width="28" height="28" fill="none" xmlns="http://www.w3.org/2000/svg"><path d="M5.353 0A5.122 5.122 0 00.25 5.103v17.295A5.123 5.123 0 005.353 27.5h17.295a5.123 5.123 0 005.102-5.102V5.102A5.122 5.122 0 0022.648 0H5.352zm0 2.5h17.295a2.586 2.586 0 012.602 2.603v17.295A2.586 2.586 0 0122.648 25H5.352a2.586 2.586 0 01-2.602-2.602V5.102A2.586 2.586 0 015.353 2.5zm8.296 6.537c-.919-.008-1.7 0-2.139.215-.294.143-.518.464-.381.48.171.024.556.107.762.386.263.356.254 1.162.254 1.162s.146 2.216-.357 2.495c-.347.19-.82-.196-1.845-1.959-.523-.907-.918-1.909-.918-1.909s-.075-.186-.21-.283c-.166-.122-.396-.162-.396-.162l-2.447.015s-.366.015-.497.172c-.122.146-.01.434-.01.434s1.914 4.477 4.081 6.733c1.988 2.072 4.244 1.934 4.244 1.934h1.025s.308-.034.464-.2c.147-.156.142-.45.142-.45s-.02-1.371.615-1.576c.63-.197 1.43 1.327 2.285 1.913.65.444 1.143.347 1.143.347l2.286-.034s1.191-.074.625-1.016c-.044-.073-.328-.693-1.694-1.963-1.436-1.327-1.245-1.112.483-3.412 1.05-1.402 1.47-2.257 1.337-2.628-.125-.346-.897-.254-.897-.254l-2.574.015s-.19-.025-.331.06a.718.718 0 00-.225.277s-.41 1.083-.953 2.007c-1.142 1.943-1.606 2.05-1.791 1.929-.435-.284-.328-1.134-.328-1.734 0-1.89.288-2.671-.556-2.875-.278-.069-.483-.112-1.196-.119h-.001z" fill="#FBA902"/></svg>