<svg width="28" height="28" viewBox="0 0 29 28" fill="none" xmlns="http://www.w3.org/2000/svg"><path d="M5.983.25A5.122 5.122 0 00.88 5.353v17.295a5.123 5.123 0 005.103 5.102h17.295a5.123 5.123 0 005.102-5.102V5.352A5.123 5.123 0 0023.278.25H5.983zm0 2.5h17.295a2.586 2.586 0 012.602 2.603v17.295a2.586 2.586 0 01-2.602 2.602H5.983a2.586 2.586 0 01-2.603-2.602V5.352A2.586 2.586 0 015.983 2.75zm8.296 6.537c-.919-.008-1.7 0-2.139.215-.293.143-.517.464-.38.48.17.024.555.107.762.386.262.356.253 1.162.253 1.162s.147 2.216-.357 2.495c-.346.19-.82-.196-1.845-1.959-.523-.907-.918-1.909-.918-1.909s-.075-.186-.21-.283c-.166-.122-.396-.162-.396-.162l-2.446.015s-.366.015-.498.172c-.122.146-.01.434-.01.434s1.914 4.477 4.082 6.733C12.164 19.138 14.42 19 14.42 19h1.025s.308-.034.464-.2c.148-.156.143-.45.143-.45s-.02-1.371.615-1.576c.63-.197 1.43 1.327 2.285 1.913.65.444 1.142.347 1.142.347L22.38 19s1.192-.074.625-1.016c-.043-.073-.327-.693-1.693-1.963-1.437-1.327-1.245-1.112.482-3.412 1.05-1.402 1.47-2.257 1.338-2.628-.125-.346-.898-.254-.898-.254l-2.574.015s-.19-.025-.33.06a.72.72 0 00-.226.277s-.41 1.083-.952 2.007c-1.143 1.943-1.607 2.05-1.792 1.929-.435-.284-.327-1.134-.327-1.734 0-1.89.287-2.671-.556-2.875-.28-.069-.484-.112-1.197-.119z" fill="#FCF8F1"/></svg>