<svg width="28" height="28" fill="none" xmlns="http://www.w3.org/2000/svg"><path d="M13.646 9.287h0a15.18 15.18 0 00-1.228.023c-.357.028-.623.081-.798.167h0a.734.734 0 00-.131.083c.033.011.068.024.102.038.168.068.361.182.501.37v.001c.174.235.242.584.273.833a4.118 4.118 0 01.03.44v.031l.001.017a10.4 10.4 0 01.014.334c.006.215.008.508-.005.81-.014.3-.043.621-.106.89a1.681 1.681 0 01-.128.377.67.67 0 01-.262.293h-.001a.594.594 0 01-.491.04c-.162-.055-.318-.172-.475-.33-.314-.318-.702-.88-1.216-1.762v-.001a15.39 15.39 0 01-.666-1.317 17.856 17.856 0 01-.249-.578l-.014-.034-.003-.01h0m4.852-.715l-4.852.715s0 0 0 0m4.852-.715h.003-.003zm-4.852.715h0L8.792 10a.43.43 0 00-.036-.068.374.374 0 00-.088-.106h-.001a.694.694 0 00-.19-.09 1.001 1.001 0 00-.084-.023l-2.414.014h-.006a.975.975 0 00-.265.058.197.197 0 00-.038.021l-.002.007a.272.272 0 00.003.072.57.57 0 00.025.103v.002l.003.006.016.037a21.458 21.458 0 00.308.678c.212.452.517 1.078.89 1.774.747 1.398 1.754 3.056 2.813 4.158h0c.957.998 1.976 1.461 2.753 1.676.389.107.717.152.946.17a3.544 3.544 0 00.33.012h.019l.007-.001h1.016c.006 0 .013-.002.022-.004a.9.9 0 00.096-.023.433.433 0 00.18-.094h.001a.333.333 0 00.063-.158.755.755 0 00.011-.113v-.004h0v0-.068a3.927 3.927 0 01.074-.697 2.13 2.13 0 01.209-.604c.104-.188.264-.371.505-.45h.003c.27-.084.522.029.72.168.203.142.405.352.598.567.087.096.17.192.252.286.112.13.224.258.344.388.201.218.396.407.587.537.292.2.542.273.71.299a1.026 1.026 0 00.238.009l.007-.001h0l.02-.004h.022l2.278-.034h.003a.907.907 0 00.405-.119c.079-.047.115-.096.127-.147.012-.053.01-.167-.112-.372a.863.863 0 01-.019-.032c-.038-.07-.12-.22-.316-.476-.238-.31-.64-.772-1.315-1.4l-.053-.049c-.326-.3-.584-.539-.748-.75-.184-.238-.28-.481-.219-.777.055-.26.23-.53.465-.85.117-.159.262-.346.43-.564.17-.22.365-.473.578-.755.521-.696.879-1.247 1.089-1.663a2.45 2.45 0 00.2-.503c.032-.132.023-.2.013-.228l.235-.084m-13.707.271L19 9.741h0l.014.002h.018l2.573-.016h.014l.014-.001h.005l.02-.003a1.85 1.85 0 01.324 0c.091.01.17.026.225.051a.186.186 0 01.05.03l.01.012.234-.085m0 0c-.125-.346-.897-.254-.897-.254l-1.878 5.133c-.046-.432.439-.921 1.438-2.251 1.05-1.402 1.47-2.257 1.337-2.628zm-7.686 9.019s.308-.034.464-.2l-.464.2zM1.927 1.677A4.873 4.873 0 015.353.25h17.294A4.872 4.872 0 0127.5 5.103s0 0 0 0v17.294s0 0 0 0a4.872 4.872 0 01-4.853 4.853s0 0 0 0H5.352s0 0 0 0A4.872 4.872 0 01.5 22.397V5.103a4.873 4.873 0 011.427-3.426zM15.421 18.1l-.25.004h0l.25-.004zm7.227-15.85H5.352A2.836 2.836 0 002.5 5.103v17.294a2.836 2.836 0 002.853 2.853h17.294a2.836 2.836 0 002.853-2.852V5.102a2.836 2.836 0 00-2.852-2.852z" stroke="#FBA902" stroke-width=".5"/></svg>