<svg width="184" height="49" fill="none" xmlns="http://www.w3.org/2000/svg"><path d="M3.3 2.493l5.26 9.162 5.312-9.162h3.3l-7.11 11.835v6.593H7.057v-6.645L0 2.493h3.3zm25.025 18.732c-1.535 0-2.842-.256-3.92-.767-1.079-.511-1.947-1.207-2.605-2.088a8.884 8.884 0 01-1.426-3.014 13.957 13.957 0 01-.438-3.517V2.322h3.07v9.517c0 .864.092 1.701.274 2.512a6.85 6.85 0 00.878 2.142A4.356 4.356 0 0025.775 18c.695.37 1.545.555 2.55.555 1.023 0 1.873-.185 2.55-.555a4.508 4.508 0 001.644-1.534 6.679 6.679 0 00.85-2.168c.183-.793.274-1.613.274-2.459V2.322h3.098v9.517c0 1.287-.164 2.494-.494 3.622a8.409 8.409 0 01-1.48 2.988c-.658.863-1.526 1.542-2.604 2.036-1.06.493-2.34.74-3.838.74zm28.435-.305V7.789l-5.608 9.966h-1.77l-5.636-9.966V20.92h-3.005V2.493h3.22l6.306 11.264 6.305-11.264h3.22v18.428H56.76zM3.3 23.971l5.26 9.162 5.312-9.162h3.3l-7.11 11.836v6.592H7.057v-6.644L0 23.97h3.3zm25.025 18.731c-1.535 0-2.842-.255-3.92-.766-1.079-.511-1.947-1.208-2.605-2.089a8.883 8.883 0 01-1.426-3.014 13.956 13.956 0 01-.438-3.516v-9.518h3.07v9.518c0 .864.092 1.7.274 2.511a6.83 6.83 0 00.878 2.142 4.356 4.356 0 001.617 1.507c.695.37 1.545.555 2.55.555 1.023 0 1.873-.185 2.55-.555a4.508 4.508 0 001.644-1.533 6.68 6.68 0 00.85-2.168c.183-.793.274-1.613.274-2.46V23.8h3.098v9.518c0 1.287-.164 2.494-.494 3.622a8.409 8.409 0 01-1.48 2.987c-.658.864-1.526 1.543-2.604 2.036-1.06.494-2.34.74-3.838.74zm28.435-.303V29.266l-5.608 9.967h-1.77l-5.636-9.967V42.4h-3.005V23.97h3.22l6.306 11.265 6.305-11.265h3.22V42.4H56.76z" fill="#FBA902"/><path opacity=".7" d="M80 2v40" stroke="#351C0E" stroke-width=".5"/><path opacity=".7" d="M99.418 30.215a4.7 4.7 0 01-2.494-.71c-.774-.487-1.383-1.082-1.828-1.784V30h-.688V14.305h.731v7.052a7.755 7.755 0 011.935-1.935c.731-.516 1.577-.774 2.537-.774.817 0 1.541.172 2.172.516a4.71 4.71 0 011.612 1.333 6.063 6.063 0 011.011 1.87c.243.688.365 1.384.365 2.086 0 .76-.136 1.49-.408 2.193a6.14 6.14 0 01-1.14 1.849c-.487.53-1.06.953-1.72 1.268a4.87 4.87 0 01-2.085.452zm-.108-.688c.688 0 1.319-.143 1.892-.43a4.828 4.828 0 001.484-1.14c.43-.487.759-1.032.989-1.634.243-.616.365-1.24.365-1.87a5.5 5.5 0 00-.58-2.494 5.042 5.042 0 00-1.613-1.892c-.673-.487-1.455-.731-2.343-.731-.674 0-1.29.143-1.85.43a5.025 5.025 0 00-1.483 1.161c-.415.473-.76.982-1.032 1.526v3.892c.043.43.2.838.473 1.226.287.386.638.73 1.054 1.031a6.04 6.04 0 001.311.689c.473.157.918.236 1.333.236zm8.05-4.343V18.82h.731v6.278c0 2.953.996 4.429 2.989 4.429a4.36 4.36 0 001.935-.451 5.105 5.105 0 001.634-1.29 5.351 5.351 0 001.053-1.871V18.82h.731v10.062c0 .315.129.473.387.473V30c-.2.014-.337.007-.408-.021a.843.843 0 01-.473-.302 1.02 1.02 0 01-.172-.58l-.022-1.849a5.362 5.362 0 01-2.021 2.171 5.23 5.23 0 01-2.795.796c-2.379 0-3.569-1.677-3.569-5.031zm15.976 5.031c-.86 0-1.663-.15-2.408-.451a5.45 5.45 0 01-1.935-1.355l.387-.516c.588.573 1.197.996 1.827 1.268.631.273 1.333.409 2.107.409 1.032 0 1.871-.222 2.516-.666.659-.445.989-1.061.989-1.85 0-.515-.151-.917-.452-1.203-.286-.287-.709-.517-1.268-.688a21.74 21.74 0 00-2-.56 22.36 22.36 0 01-1.935-.58c-.501-.2-.881-.466-1.139-.796s-.387-.788-.387-1.375c0-.732.179-1.334.537-1.806.373-.473.86-.825 1.462-1.054a5.756 5.756 0 012.021-.344c.889 0 1.656.15 2.301.451.645.287 1.111.667 1.397 1.14l-.473.409c-.301-.445-.759-.782-1.376-1.011a5.39 5.39 0 00-1.935-.344c-.573 0-1.103.086-1.591.258a2.45 2.45 0 00-1.182.796c-.301.358-.452.824-.452 1.397 0 .473.101.838.301 1.096.215.259.538.466.968.624.43.143.982.301 1.655.473.875.215 1.627.43 2.258.645.645.215 1.139.509 1.483.881.344.359.516.86.516 1.505 0 1.004-.387 1.8-1.161 2.387-.759.573-1.77.86-3.031.86zm6.829-14.104v-1.806h.731v1.806h-.731zm0 13.889V18.82h.731V30h-.731zm13.142 0h-.731v-6.235c0-1.534-.222-2.652-.667-3.354-.43-.717-1.118-1.075-2.064-1.075-.673 0-1.333.165-1.978.495a5.355 5.355 0 00-1.698 1.311 4.695 4.695 0 00-1.032 1.87V30h-.731V18.82h.709v2.795a5.26 5.26 0 011.204-1.548 5.857 5.857 0 011.72-1.032 5.07 5.07 0 011.935-.387c1.176 0 2.021.423 2.537 1.268.531.846.796 2.1.796 3.763V30zm8.005.215c-.76 0-1.47-.15-2.129-.451a5.847 5.847 0 01-1.741-1.269 6.39 6.39 0 01-1.161-1.87 6.347 6.347 0 01-.409-2.28c0-1.046.237-1.999.71-2.859a5.636 5.636 0 011.913-2.064 5.008 5.008 0 012.731-.774c1.032 0 1.949.265 2.752.796a5.533 5.533 0 011.935 2.085c.487.86.738 1.82.752 2.881a.723.723 0 01-.021.172v.172h-10.019c.071.903.322 1.72.752 2.451a5.198 5.198 0 001.699 1.742c.688.43 1.447.645 2.279.645a4.51 4.51 0 002.3-.624c.717-.43 1.226-.975 1.527-1.634l.666.172a3.921 3.921 0 01-1.01 1.398 5.5 5.5 0 01-1.613.967 5.33 5.33 0 01-1.913.344zm-4.709-6.084h9.331c-.057-.947-.301-1.778-.731-2.494a4.826 4.826 0 00-1.677-1.72c-.674-.416-1.433-.624-2.279-.624a4.33 4.33 0 00-2.279.623 4.887 4.887 0 00-1.655 1.72c-.416.732-.653 1.563-.71 2.495zm15.891 6.084c-.86 0-1.663-.15-2.408-.451a5.45 5.45 0 01-1.935-1.355l.387-.516c.587.573 1.197.996 1.827 1.268.631.273 1.333.409 2.107.409 1.032 0 1.871-.222 2.516-.666.659-.445.989-1.061.989-1.85 0-.515-.151-.917-.452-1.203-.286-.287-.709-.517-1.268-.688a21.74 21.74 0 00-2-.56 22.36 22.36 0 01-1.935-.58c-.501-.2-.881-.466-1.139-.796s-.387-.788-.387-1.375c0-.732.179-1.334.537-1.806.373-.473.86-.825 1.462-1.054a5.756 5.756 0 012.021-.344c.889 0 1.656.15 2.301.451.645.287 1.111.667 1.397 1.14l-.473.409c-.301-.445-.759-.782-1.376-1.011a5.39 5.39 0 00-1.935-.344c-.573 0-1.103.086-1.591.258a2.45 2.45 0 00-1.182.796c-.301.358-.452.824-.452 1.397 0 .473.101.838.301 1.096.215.259.538.466.968.624.43.143.982.301 1.655.473.875.215 1.627.43 2.258.645.645.215 1.139.509 1.483.881.344.359.516.86.516 1.505 0 1.004-.387 1.8-1.161 2.387-.759.573-1.77.86-3.031.86zm10.204 0c-.86 0-1.663-.15-2.408-.451a5.45 5.45 0 01-1.935-1.355l.387-.516c.587.573 1.197.996 1.827 1.268.631.273 1.333.409 2.107.409 1.032 0 1.871-.222 2.516-.666.659-.445.989-1.061.989-1.85 0-.515-.151-.917-.452-1.203-.286-.287-.709-.517-1.268-.688a21.74 21.74 0 00-2-.56 22.36 22.36 0 01-1.935-.58c-.501-.2-.881-.466-1.139-.796S169 22.44 169 21.852c0-.732.179-1.334.537-1.806.373-.473.86-.825 1.462-1.054a5.756 5.756 0 012.021-.344c.889 0 1.656.15 2.301.451.645.287 1.111.667 1.397 1.14l-.473.409c-.301-.445-.759-.782-1.376-1.011a5.39 5.39 0 00-1.935-.344c-.573 0-1.103.086-1.591.258a2.45 2.45 0 00-1.182.796c-.301.358-.452.824-.452 1.397 0 .473.101.838.301 1.096.215.259.538.466.968.624.43.143.982.301 1.655.473.875.215 1.627.43 2.258.645.645.215 1.139.509 1.483.881.344.359.516.86.516 1.505 0 1.004-.387 1.8-1.161 2.387-.759.573-1.77.86-3.031.86z" fill="#351C0E"/></svg>