<svg width="184" height="49" fill="none" xmlns="http://www.w3.org/2000/svg"><path d="M3.3 5.053l5.26 9.14 5.312-9.14h3.3l-7.11 11.806v6.576H7.057v-6.628L0 5.053h3.3zm25.025 18.685c-1.535 0-2.842-.255-3.92-.765-1.079-.51-1.947-1.204-2.605-2.083a8.851 8.851 0 01-1.426-3.007 13.89 13.89 0 01-.438-3.507V4.882h3.07v9.494c0 .861.092 1.696.274 2.505a6.81 6.81 0 00.878 2.136 4.352 4.352 0 001.617 1.503c.695.37 1.545.554 2.55.554 1.023 0 1.873-.184 2.55-.554a4.505 4.505 0 001.644-1.53c.402-.65.686-1.37.85-2.162.183-.79.274-1.608.274-2.452V4.882h3.098v9.494c0 1.283-.164 2.487-.494 3.613a8.38 8.38 0 01-1.48 2.98c-.658.861-1.526 1.538-2.604 2.03-1.06.493-2.34.739-3.838.739zm28.435-.303v-13.1l-5.608 9.941h-1.77l-5.636-9.941v13.1h-3.005V5.053h3.22l6.306 11.236 6.305-11.236h3.22v18.382H56.76zM3.3 26.477l5.26 9.14 5.312-9.14h3.3l-7.11 11.806v6.576H7.057v-6.628L0 26.477h3.3zm25.025 18.684c-1.535 0-2.842-.254-3.92-.764-1.079-.51-1.947-1.205-2.605-2.084a8.851 8.851 0 01-1.426-3.006 13.89 13.89 0 01-.438-3.508v-9.493h3.07V35.8c0 .861.092 1.696.274 2.505.183.791.476 1.503.878 2.136a4.352 4.352 0 001.617 1.503c.695.37 1.545.554 2.55.554 1.023 0 1.873-.185 2.55-.554a4.504 4.504 0 001.644-1.53c.402-.65.686-1.37.85-2.162a10.85 10.85 0 00.274-2.453v-9.493h3.098V35.8c0 1.283-.164 2.487-.494 3.613a8.38 8.38 0 01-1.48 2.98c-.658.86-1.526 1.538-2.604 2.03-1.06.492-2.34.738-3.838.738zm28.435-.302v-13.1L51.152 41.7h-1.77l-5.636-9.941v13.1h-3.005V26.477h3.22l6.306 11.237 6.305-11.236h3.22v18.38H56.76z" fill="#FBA902"/><path opacity=".7" d="M80 4.561v39.9" stroke="#FCF8F1" stroke-width=".5"/><path opacity=".7" d="M99.751 30.953a4.7 4.7 0 01-2.494-.71c-.774-.487-1.383-1.081-1.828-1.784v2.28h-.688V15.042h.731v7.052a7.751 7.751 0 011.936-1.935c.73-.516 1.576-.774 2.537-.774.817 0 1.54.172 2.171.516a4.71 4.71 0 011.613 1.333 6.06 6.06 0 011.01 1.87 6.2 6.2 0 01.366 2.086 6.022 6.022 0 01-1.548 4.042 5.599 5.599 0 01-1.72 1.269 4.874 4.874 0 01-2.086.451zm-.108-.688a4.17 4.17 0 001.893-.43 4.836 4.836 0 001.483-1.14 5.3 5.3 0 00.989-1.633c.244-.617.366-1.24.366-1.87a5.5 5.5 0 00-.581-2.495 5.04 5.04 0 00-1.612-1.892c-.674-.487-1.455-.73-2.344-.73-.674 0-1.29.143-1.849.43a5.022 5.022 0 00-1.484 1.16 7.15 7.15 0 00-1.032 1.527v3.891c.044.43.201.839.474 1.226.286.387.637.73 1.053 1.032.416.286.853.516 1.312.688.472.157.917.236 1.332.236zm8.051-4.343v-6.364h.731v6.278c0 2.953.996 4.43 2.988 4.43.674 0 1.319-.151 1.935-.452a5.097 5.097 0 001.634-1.29 5.37 5.37 0 001.054-1.87v-7.096h.731V29.62c0 .316.129.473.387.473v.645c-.201.015-.337.007-.409-.021a.847.847 0 01-.473-.301 1.02 1.02 0 01-.172-.58l-.021-1.85a5.37 5.37 0 01-2.021 2.172 5.23 5.23 0 01-2.795.795c-2.38 0-3.569-1.677-3.569-5.03zm15.975 5.031c-.86 0-1.662-.15-2.408-.451a5.45 5.45 0 01-1.935-1.355l.387-.516c.588.574 1.197.996 1.828 1.269.63.272 1.333.408 2.107.408 1.032 0 1.87-.222 2.515-.666.66-.445.989-1.06.989-1.85 0-.515-.15-.917-.451-1.203-.287-.287-.71-.516-1.269-.688a21.679 21.679 0 00-1.999-.56 22.36 22.36 0 01-1.935-.58c-.502-.2-.882-.466-1.14-.795-.258-.33-.387-.789-.387-1.376 0-.731.179-1.333.538-1.806a3.32 3.32 0 011.462-1.054 5.75 5.75 0 012.021-.344c.888 0 1.655.15 2.3.452.645.286 1.111.666 1.398 1.14l-.473.408c-.301-.445-.76-.781-1.376-1.01a5.388 5.388 0 00-1.935-.345c-.574 0-1.104.086-1.591.258a2.447 2.447 0 00-1.183.796c-.301.358-.451.824-.451 1.397 0 .473.1.839.301 1.097.215.258.537.466.967.623.43.144.982.301 1.656.473.874.215 1.627.43 2.257.645.645.215 1.14.51 1.484.882.344.358.516.86.516 1.505 0 1.003-.387 1.799-1.161 2.386-.76.574-1.77.86-3.032.86zm6.829-14.104v-1.806h.731v1.806h-.731zm0 13.89v-11.18h.731v11.18h-.731zm13.142 0h-.731v-6.236c0-1.533-.222-2.651-.666-3.354-.43-.716-1.118-1.075-2.064-1.075-.674 0-1.333.165-1.978.495a5.359 5.359 0 00-1.699 1.311 4.718 4.718 0 00-1.032 1.87v6.988h-.731v-11.18h.71v2.795a5.243 5.243 0 011.204-1.548 5.84 5.84 0 011.72-1.032 5.062 5.062 0 011.935-.387c1.175 0 2.021.423 2.537 1.269.53.845.795 2.1.795 3.762v6.321zm8.005.214c-.76 0-1.469-.15-2.129-.451a5.849 5.849 0 01-1.741-1.269 6.39 6.39 0 01-1.161-1.87 6.347 6.347 0 01-.409-2.28c0-1.046.237-1.999.71-2.859a5.645 5.645 0 011.913-2.064 5.008 5.008 0 012.731-.774c1.032 0 1.949.265 2.752.796a5.533 5.533 0 011.935 2.085c.487.86.738 1.82.752 2.881a.723.723 0 01-.021.172v.172h-10.019c.071.903.322 1.72.752 2.451a5.208 5.208 0 001.699 1.742c.688.43 1.447.645 2.279.645.817 0 1.584-.208 2.3-.624.717-.43 1.226-.974 1.527-1.634l.666.172a3.921 3.921 0 01-1.01 1.398 5.487 5.487 0 01-1.613.967 5.33 5.33 0 01-1.913.344zm-4.709-6.084h9.331c-.057-.946-.301-1.778-.731-2.494a4.826 4.826 0 00-1.677-1.72c-.673-.416-1.433-.624-2.279-.624-.831 0-1.591.208-2.279.624a4.895 4.895 0 00-1.655 1.72c-.416.73-.652 1.562-.71 2.494zm15.891 6.084c-.86 0-1.663-.15-2.408-.451a5.45 5.45 0 01-1.935-1.355l.387-.516c.588.574 1.197.996 1.827 1.269.631.272 1.333.408 2.107.408 1.032 0 1.871-.222 2.516-.666.659-.445.989-1.06.989-1.85 0-.515-.151-.917-.452-1.203-.286-.287-.709-.516-1.268-.688a21.71 21.71 0 00-2-.56 22.36 22.36 0 01-1.935-.58c-.501-.2-.881-.466-1.139-.795-.258-.33-.387-.789-.387-1.376 0-.731.179-1.333.537-1.806.373-.473.86-.824 1.462-1.054a5.754 5.754 0 012.021-.344c.889 0 1.656.15 2.301.452.645.286 1.111.666 1.397 1.14l-.473.408c-.301-.445-.759-.781-1.376-1.01a5.388 5.388 0 00-1.935-.345c-.573 0-1.103.086-1.591.258a2.45 2.45 0 00-1.182.796c-.301.358-.452.824-.452 1.397 0 .473.101.839.301 1.097.215.258.538.466.968.623.43.144.982.301 1.655.473.875.215 1.627.43 2.258.645.645.215 1.139.51 1.483.882.344.358.516.86.516 1.505 0 1.003-.387 1.799-1.161 2.386-.759.574-1.77.86-3.031.86zm10.204 0c-.86 0-1.663-.15-2.408-.451a5.45 5.45 0 01-1.935-1.355l.387-.516c.588.574 1.197.996 1.828 1.269.63.272 1.333.408 2.107.408 1.032 0 1.87-.222 2.515-.666.659-.445.989-1.06.989-1.85 0-.515-.15-.917-.451-1.203-.287-.287-.71-.516-1.269-.688a21.77 21.77 0 00-1.999-.56 22.36 22.36 0 01-1.935-.58c-.502-.2-.882-.466-1.14-.795-.258-.33-.387-.789-.387-1.376 0-.731.179-1.333.538-1.806a3.32 3.32 0 011.462-1.054 5.75 5.75 0 012.021-.344c.888 0 1.655.15 2.3.452.645.286 1.111.666 1.398 1.14l-.473.408c-.301-.445-.76-.781-1.376-1.01a5.388 5.388 0 00-1.935-.345c-.574 0-1.104.086-1.591.258a2.447 2.447 0 00-1.183.796c-.301.358-.451.824-.451 1.397 0 .473.1.839.301 1.097.215.258.537.466.967.623.43.144.982.301 1.656.473.874.215 1.626.43 2.257.645.645.215 1.14.51 1.484.882.344.358.516.86.516 1.505 0 1.003-.387 1.799-1.161 2.386-.76.574-1.771.86-3.032.86z" fill="#FCF8F1"/></svg>