<svg width="22" height="22" fill="none" xmlns="http://www.w3.org/2000/svg"><path opacity=".7" d="M4.271.375A3.912 3.912 0 00.375 4.271v13.207a3.912 3.912 0 003.896 3.897h13.207a3.911 3.911 0 003.897-3.896V4.27A3.911 3.911 0 0017.479.375H4.27zm0 1.91h13.207c1.108 0 1.988.88 1.988 1.986v13.207c0 1.108-.88 1.988-1.988 1.988H4.271a1.974 1.974 0 01-1.987-1.988V4.271c0-1.107.88-1.987 1.987-1.987zm6.336 4.991c-.702-.006-1.298 0-1.633.165-.225.108-.396.354-.292.365.131.02.425.082.583.295.2.272.193.888.193.888s.112 1.692-.273 1.905c-.264.145-.626-.15-1.408-1.496-.4-.693-.701-1.457-.701-1.457s-.057-.143-.16-.217a.832.832 0 00-.303-.123l-1.868.011s-.28.012-.38.131c-.094.112-.008.331-.008.331s1.462 3.42 3.117 5.143c1.518 1.581 3.24 1.476 3.24 1.476h.783s.235-.026.354-.152c.113-.12.11-.344.11-.344s-.016-1.047.469-1.204c.481-.15 1.092 1.014 1.745 1.461.496.34.872.265.872.265l1.746-.026s.91-.056.477-.776c-.033-.055-.25-.529-1.293-1.498-1.097-1.014-.95-.85.369-2.606.801-1.07 1.122-1.723 1.02-2.007-.095-.264-.684-.194-.684-.194l-1.966.012s-.145-.02-.253.045a.55.55 0 00-.172.212s-.313.827-.727 1.533c-.873 1.483-1.227 1.565-1.368 1.473-.332-.217-.25-.866-.25-1.325 0-1.443.22-2.04-.425-2.195-.213-.052-.37-.086-.913-.09h-.001z" fill="#493326"/></svg>